<svg width="54" height="54" viewBox="0 0 54 54" fill="none" xmlns="http://www.w3.org/2000/svg">
<g clip-path="url(#clip0)">
<path id="white" fill-rule="evenodd" clip-rule="evenodd" d="M27 0C41.9121 0 54 12.3928 54 27.6829C54 39.9112 46.2726 50.2847 35.5509 53.9486C34.182 54.2213 33.696 53.3568 33.696 52.6197C33.696 51.7071 33.7284 48.7264 33.7284 45.022C33.7284 42.4408 32.8644 40.7561 31.8951 39.8975C37.908 39.2117 44.226 36.8706 44.226 26.238C44.226 23.214 43.1784 20.7463 41.445 18.8077C41.7258 18.1084 42.6519 15.2927 41.1804 11.4803C41.1804 11.4803 38.9178 10.7385 33.7635 14.3187C31.5613 13.7049 29.2862 13.391 27 13.3866C24.7156 13.3907 22.4423 13.7047 20.2419 14.3187C15.0822 10.7385 12.8142 11.4803 12.8142 11.4803C11.3481 15.2927 12.2742 18.1084 12.5523 18.8077C10.827 20.7463 9.77131 23.214 9.77131 26.238C9.77131 36.8436 16.0758 39.2206 22.0725 39.9199C21.3003 40.6111 20.601 41.8305 20.358 43.6206C18.819 44.328 14.9094 45.5522 12.501 41.3213C12.501 41.3213 11.0727 38.6615 8.3619 38.4671C8.3619 38.4671 5.7294 38.4321 8.1783 40.1493C8.1783 40.1493 9.9468 40.9998 11.1753 44.1993C11.1753 44.1993 12.7602 49.1402 20.2716 47.4662C20.2851 49.7801 20.3094 51.9609 20.3094 52.6197C20.3094 53.3514 19.8126 54.2077 18.4653 53.9512C7.73549 50.2927 0 39.9139 0 27.6829C0 12.3928 12.0906 0 27 0" fill="white"/>
</g>
<defs>
<clipPath id="clip0">
<rect width="54" height="54" fill="white"/>
</clipPath>
</defs>
</svg>
