<svg width="54" height="54" viewBox="0 0 54 54" fill="none" xmlns="http://www.w3.org/2000/svg">
<path id="white" d="M53.3672 27.0927C53.3672 41.6543 41.5616 53.4599 27 53.4599C12.4382 53.4599 0.632812 41.6543 0.632812 27.0927C0.632812 12.5309 12.4382 0.725494 27 0.725494C41.5616 0.725494 53.3672 12.5309 53.3672 27.0927Z" fill="white"/>
<path id="colour" d="M42.7528 29.2133V40.0846H36.4507V29.943C36.4507 27.3956 35.5419 25.656 33.2583 25.656C31.5188 25.656 30.4836 26.8287 30.0269 27.9625C29.8594 28.3664 29.8181 28.9287 29.8181 29.4979V40.0847H23.5138C23.5138 40.0847 23.5987 22.9066 23.5138 21.1283H29.8181V23.8155C29.8067 23.8361 29.7883 23.8565 29.7767 23.8772H29.8181V23.8155C30.6558 22.5259 32.1498 20.6828 35.4982 20.6828C39.6453 20.6828 42.7528 23.3932 42.7528 29.2133V29.2133ZM16.9226 11.9916C14.7653 11.9916 13.3562 13.4076 13.3562 15.2666C13.3562 17.0865 14.724 18.5413 16.84 18.5413H16.8791C19.0777 18.5413 20.4455 17.0866 20.4455 15.2666C20.4042 13.4077 19.0777 11.9916 16.9226 11.9916V11.9916ZM13.7303 40.0847H20.0301V21.1283H13.7303V40.0847V40.0847Z" fill="#4A1E86"/>
</svg>
