<svg width="54" height="54" viewBox="0 0 54 54" fill="none" xmlns="http://www.w3.org/2000/svg">
<g clip-path="url(#clip0)">
<path d="M27.0019 53.9995C41.9135 53.9995 54.0017 41.9113 54.0017 26.9998C54.0017 12.0882 41.9135 0 27.0019 0C12.0904 0 0.00219727 12.0882 0.00219727 26.9998C0.00219727 41.9113 12.0904 53.9995 27.0019 53.9995Z" fill="white"/>
<path d="M43.5384 19.404C42.3813 19.9171 41.1367 20.2641 39.8314 20.4191C41.1641 19.6206 42.1869 18.3572 42.6696 16.8493C41.4226 17.589 40.0408 18.1257 38.5714 18.415C37.3941 17.1612 35.7168 16.3776 33.8595 16.3776C30.296 16.3776 27.4058 19.2678 27.4058 22.8313C27.4058 23.3372 27.4631 23.8295 27.5738 24.3022C22.2102 24.0331 17.4545 21.464 14.2712 17.5582C13.7158 18.5112 13.3972 19.6206 13.3972 20.8031C13.3972 23.0417 14.5374 25.0179 16.2681 26.1749C15.2107 26.1417 14.2149 25.8515 13.3452 25.3668C13.3447 25.3942 13.3447 25.4217 13.3447 25.4486C13.3447 28.5756 15.5702 31.1837 18.522 31.7762C17.981 31.9245 17.4097 32.0029 16.8221 32.0029C16.4053 32.0029 16.0015 31.963 15.6078 31.8879C16.4289 34.4513 18.8118 36.3172 21.6365 36.3697C19.4273 38.1009 16.645 39.1324 13.6205 39.1324C13.1007 39.1324 12.5857 39.102 12.0818 39.0419C14.9364 40.8737 18.3295 41.9417 21.9739 41.9417C33.8446 41.9417 40.3363 32.1078 40.3363 23.5788C40.3363 23.2991 40.33 23.0205 40.3175 22.7442C41.5795 21.8346 42.6735 20.6982 43.5384 19.404Z" fill="#4A1E86"/>
</g>
<defs>
<clipPath id="clip0">
<rect width="54" height="54" fill="white"/>
</clipPath>
</defs>
</svg>
